<svg xmlns="http://www.w3.org/2000/svg" style="display: none;"><symbol id="icon-bookmark-2-2" viewBox="0 0 24 24"><g class="nc-icon-wrapper"><path fill="currentColor" d="M21,1c0-0.552-0.448-1-1-1H4C3.448,0,3,0.448,3,1v23l9-5.821L21,24V1z"/></g></symbol><symbol id="icon-chat-46" viewBox="0 0 24 24"><g class="nc-icon-wrapper"><path data-color="color-2" d="M20,6v8c0,0.552-0.448,1-1,1h-7.359L7,19h7l6,4v-4h3c0.552,0,1-0.448,1-1V7 c0-0.552-0.448-1-1-1H20z"/> <path fill="currentColor" d="M17,0H1C0.448,0,0,0.448,0,1v11c0,0.552,0.448,1,1,1h3v5.469L11,13h6c0.552,0,1-0.448,1-1V1 C18,0.448,17.552,0,17,0z"/></g></symbol><symbol id="icon-ic_home_24px" viewBox="0 0 24 24"><g class="nc-icon-wrapper" stroke="none" fill="currentColor">
        <path d="M10 20v-6h4v6h5v-8h3L12 3 2 12h3v8z"/>
    </g></symbol><symbol id="icon-ic_flight_takeoff_24px" viewBox="0 0 24 24"><g class="nc-icon-wrapper" stroke="none" fill="currentColor">
        <path d="M2.5 19h19v2h-19zm19.57-9.36c-.21-.8-1.04-1.28-1.84-1.06L14.92 10l-6.9-6.43-1.93.51 4.14 7.17-4.97 1.33-1.97-1.54-1.45.39 1.82 3.16.77 1.33 1.6-.43 5.31-1.42 4.35-1.16L21 11.49c.81-.23 1.28-1.05 1.07-1.85z"/>
    </g></symbol><symbol id="icon-ic_location_on_24px" viewBox="0 0 24 24"><g class="nc-icon-wrapper" stroke="none" fill="currentColor">
        <path d="M12 2C8.13 2 5 5.13 5 9c0 5.25 7 13 7 13s7-7.75 7-13c0-3.87-3.13-7-7-7zm0 9.5c-1.38 0-2.5-1.12-2.5-2.5s1.12-2.5 2.5-2.5 2.5 1.12 2.5 2.5-1.12 2.5-2.5 2.5z"/>
    </g></symbol><symbol id="icon-ic_map_24px" viewBox="0 0 24 24"><g class="nc-icon-wrapper" stroke="none" fill="currentColor">
        <path d="M20.5 3l-.16.03L15 5.1 9 3 3.36 4.9c-.21.07-.36.25-.36.48V20.5c0 .28.22.5.5.5l.16-.03L9 18.9l6 2.1 5.64-1.9c.21-.07.36-.25.36-.48V3.5c0-.28-.22-.5-.5-.5zM15 19l-6-2.11V5l6 2.11V19z"/>
    </g></symbol><symbol id="icon-favourite-31" viewBox="0 0 24 24"><g class="nc-icon-wrapper"><path fill="currentColor" d="M12.712,1.942l2.969,6.015l6.638,0.965c0.651,0.095,0.911,0.895,0.44,1.354l-4.804,4.682l1.134,6.612 c0.111,0.649-0.57,1.143-1.152,0.837L12,19.286l-5.938,3.122C5.48,22.714,4.799,22.219,4.91,21.57l1.134-6.612l-4.804-4.682 c-0.471-0.459-0.211-1.26,0.44-1.354l6.638-0.965l2.969-6.015C11.579,1.352,12.421,1.352,12.712,1.942z"/></g></symbol><symbol id="icon-ic_directions_car_24px" viewBox="0 0 24 24"><g class="nc-icon-wrapper" stroke="none" fill="currentColor">
        <path d="M18.92 6.01C18.72 5.42 18.16 5 17.5 5h-11c-.66 0-1.21.42-1.42 1.01L3 12v8c0 .55.45 1 1 1h1c.55 0 1-.45 1-1v-1h12v1c0 .55.45 1 1 1h1c.55 0 1-.45 1-1v-8l-2.08-5.99zM6.5 16c-.83 0-1.5-.67-1.5-1.5S5.67 13 6.5 13s1.5.67 1.5 1.5S7.33 16 6.5 16zm11 0c-.83 0-1.5-.67-1.5-1.5s.67-1.5 1.5-1.5 1.5.67 1.5 1.5-.67 1.5-1.5 1.5zM5 11l1.5-4.5h11L19 11H5z"/>
    </g></symbol><symbol id="icon-zoom-2-2" viewBox="0 0 24 24"><g class="nc-icon-wrapper"><path fill="currentColor" d="M22.707,19.879l-4.37-4.37C19.386,13.928,20,12.035,20,10c0-5.514-4.486-10-10-10S0,4.486,0,10 s4.486,10,10,10c2.035,0,3.928-0.614,5.509-1.663l4.369,4.37c0.391,0.391,1.024,0.391,1.414,0l1.414-1.414 C23.097,20.902,23.098,20.269,22.707,19.879z M2,10c0-4.411,3.589-8,8-8s8,3.589,8,8s-3.589,8-8,8S2,14.411,2,10z"/></g></symbol></svg>