<?xml version="1.0" encoding="UTF-8" ?>
<!DOCTYPE svg PUBLIC "-//W3C//DTD SVG 1.1//EN" "http://www.w3.org/Graphics/SVG/1.1/DTD/svg11.dtd">
<svg width="153pt" height="106pt" viewBox="0 0 153 106" version="1.1" xmlns="http://www.w3.org/2000/svg">
<g id="#eb2f64ff">
<path fill="#eb2f64" opacity="1.00" d=" M 61.30 0.42 C 70.34 16.00 79.35 31.61 88.32 47.24 C 92.95 39.14 97.62 31.07 102.30 23.01 C 118.19 50.49 134.06 77.99 149.92 105.50 C 140.02 105.80 130.04 104.89 120.20 106.00 L 57.61 106.00 C 53.11 105.13 48.52 105.46 43.97 105.42 C 29.54 105.41 15.11 105.43 0.69 105.41 C 20.88 70.41 41.07 35.40 61.30 0.42 M 9.34 100.41 C 25.49 100.32 41.64 100.63 57.77 100.25 C 66.84 84.14 76.34 68.26 85.39 52.12 C 77.37 38.21 69.33 24.30 61.31 10.39 C 43.97 40.39 26.65 70.40 9.34 100.41 M 91.23 52.14 C 100.53 68.29 109.72 84.51 119.25 100.53 C 126.58 100.46 133.92 100.52 141.26 100.49 C 128.35 78.00 115.26 55.61 102.43 33.08 C 98.43 39.27 95.02 45.82 91.23 52.14 M 88.33 57.13 C 80.10 71.52 71.76 85.85 63.49 100.22 C 80.05 100.20 96.60 100.22 113.15 100.21 C 104.89 85.84 96.54 71.52 88.33 57.13 Z" />
</g>
</svg>
